<?xml version="1.0" encoding="UTF-8" standalone="no"?>
<svg
   viewBox="0 0 512 512"
   version="1.1"
   id="svg4"
   sodipodi:docname="up.svg"
   inkscape:version="1.2.2 (732a01da63, 2022-12-09)"
   xmlns:inkscape="http://www.inkscape.org/namespaces/inkscape"
   xmlns:sodipodi="http://sodipodi.sourceforge.net/DTD/sodipodi-0.dtd"
   xmlns="http://www.w3.org/2000/svg"
   xmlns:svg="http://www.w3.org/2000/svg">
  <defs
     id="defs8" />
  <sodipodi:namedview
     id="namedview6"
     pagecolor="#ffffff"
     bordercolor="#000000"
     borderopacity="0.25"
     inkscape:showpageshadow="2"
     inkscape:pageopacity="0.0"
     inkscape:pagecheckerboard="0"
     inkscape:deskcolor="#d1d1d1"
     showgrid="false"
     inkscape:zoom="1.0253906"
     inkscape:cx="99.961905"
     inkscape:cy="256.48762"
     inkscape:window-width="1366"
     inkscape:window-height="705"
     inkscape:window-x="-8"
     inkscape:window-y="-8"
     inkscape:window-maximized="1"
     inkscape:current-layer="svg4" />
  <!--! Font Awesome Pro 6.4.0 by @fontawesome - https://fontawesome.com License - https://fontawesome.com/license (Commercial License) Copyright 2023 Fonticons, Inc. -->
  <path
     d="M256 512A256 256 0 1 0 256 0a256 256 0 1 0 0 512zM377 271c9.4 9.4 9.4 24.6 0 33.9s-24.6 9.4-33.9 0l-87-87-87 87c-9.4 9.4-24.6 9.4-33.9 0s-9.4-24.6 0-33.9L239 167c9.4-9.4 24.6-9.4 33.9 0L377 271z"
     id="path2" />
  <path
     style="fill:#aa0000;stroke:#d40000;stroke-width:0.975238"
     d="M 247.22286,511.29511 C 219.10614,510.34935 188.83741,504.07573 162.86476,493.8107 74.365514,458.83362 12.358118,377.72114 1.9910577,283.37026 c -1.36924638,-12.46154 -1.36924638,-42.27898 0,-54.74052 C 15.110944,109.22531 109.5959,14.946925 229.18095,1.9365377 c 13.14755,-1.4304022 40.49055,-1.4304022 53.6381,0 C 402.42282,14.948962 496.887,109.20662 510.00894,228.62974 c 1.36881,12.45752 1.36938,42.27495 9.8e-4,54.74052 -10.2546,93.42067 -71.06354,173.81672 -158.43667,209.47053 -31.91921,13.02508 -69.28788,19.63371 -104.35048,18.45432 z M 162.37714,310.2038 c 2.60446,-1.22149 18.80606,-16.76904 48.74831,-46.78039 l 44.84735,-44.95083 45.8498,45.73773 c 49.96329,49.84118 47.53557,47.87322 59.0155,47.83902 13.22388,-0.0394 23.34735,-10.37581 23.37477,-23.86647 0.0225,-11.07416 0.65957,-10.32185 -59.59976,-70.38107 -39.5986,-39.4671 -56.01523,-55.20847 -58.73602,-56.32 -4.81615,-1.96759 -15.2043,-1.98821 -19.90461,-0.0395 -4.44685,1.8436 -111.2089,107.99727 -114.96103,114.30593 -3.36867,5.66391 -4.12404,14.267 -1.78942,20.38011 2.20241,5.76693 7.65104,11.84028 12.67511,14.12843 5.27851,2.40401 15.29653,2.37812 20.48,-0.053 z"
     id="path804" />
  <path
     style="fill:#aa0000;stroke:#d40000;stroke-width:0.975238"
     d="M 239.42772,509.97595 C 205.85494,507.64928 174.62175,499.22648 143.84762,484.20041 100.28564,462.93044 62.76307,428.24893 37.410283,385.8221 21.005616,358.36956 10.754521,330.47388 4.7552738,296.96 1.8096113,280.50451 1.0735946,242.74655 3.3580137,225.28 5.3377535,210.14301 7.8027312,198.19603 11.722326,184.74079 36.821602,98.579602 107.91806,30.383679 195.04762,8.8946478 214.93052,3.9908674 225.8603,2.676932 250.63619,2.2120069 c 25.21003,-0.4730719 37.66934,0.5303636 57.24903,4.6106662 36.88751,7.6871579 74.60014,25.1982129 104.53328,48.5377889 11.04579,8.612664 29.62977,26.687023 39.34124,38.262395 30.56402,36.430113 50.42096,82.229043 56.78682,130.975663 1.9703,15.08764 1.99144,47.56765 0.0407,62.44921 -7.30148,55.69869 -30.65756,104.73642 -68.75484,144.35549 -47.62324,49.52558 -107.76782,76.35013 -177.00571,78.94474 -6.43657,0.2412 -16.9661,0.0738 -23.39895,-0.37201 z M 162.90883,310.59471 c 1.85309,-0.95598 23.56308,-21.83557 48.24442,-46.39909 l 44.87515,-44.66095 43.38389,43.18575 c 23.86115,23.75216 45.54168,44.64546 48.17898,46.42955 15.02174,10.16198 35.28624,-0.2947 37.2653,-19.22925 0.81037,-7.75318 -1.22105,-12.11326 -10.57874,-22.70548 -11.23322,-12.7152 -101.12826,-101.67698 -105.9963,-104.89589 -3.85888,-2.55162 -5.1102,-2.843 -12.25981,-2.85479 -7.17644,-0.0118 -8.38862,0.2682 -12.28154,2.83721 -6.74184,4.44905 -111.55665,109.58845 -113.84856,114.20112 -5.11702,10.29843 -3.29232,20.89029 5.03315,29.21574 3.25883,3.25884 6.48001,5.47722 8.95647,6.16819 5.2787,1.47283 14.93967,0.81678 19.02759,-1.29211 z"
     id="path806" />
  <path
     style="fill:#aa0000;stroke:#d40000;stroke-width:0.975238"
     d="M 239.29534,509.03211 C 174.83269,504.69298 112.2872,474.5522 69.389671,427.15429 36.812385,391.15931 16.762624,351.35156 6.8565606,302.99811 2.2984443,280.74904 1.7557101,238.35715 5.7304517,215.04 14.814234,161.75151 38.977052,114.97405 77.012389,77.043324 115.64083,38.521134 164.84665,13.31064 216.99048,5.3258609 230.42275,3.2689774 266.70924,2.4000261 281.57424,3.7792753 319.01626,7.2533314 358.07152,20.78886 391.59771,41.910516 c 12.45244,7.845105 19.84067,13.449706 32.32833,24.523811 44.60483,39.555733 72.65505,90.898263 82.87887,151.699733 2.5572,15.20777 2.5572,60.52411 0,75.73188 -11.56961,68.80489 -45.62141,124.9695 -100.61824,165.95844 -32.38347,24.13529 -67.13385,38.97739 -107.27619,45.81831 -12.35211,2.105 -39.61874,4.62352 -46.15758,4.26341 -1.43238,-0.0789 -7.48828,-0.47219 -13.45756,-0.87399 z M 371.14869,311.2946 c 8.48416,-4.37061 14.35082,-13.97035 14.42218,-23.59936 0.0474,-6.39787 -1.51923,-9.72118 -8.81437,-18.69773 -7.69571,-9.46945 -103.17532,-103.89894 -108.41282,-107.22046 -3.91798,-2.48471 -5.32936,-2.81324 -12.08585,-2.81324 -5.88565,0 -8.59671,0.48107 -11.75573,2.08602 -4.33256,2.20117 -104.99861,102.14397 -112.56163,111.75291 -9.42058,11.96899 -6.40312,28.19032 6.89736,37.07916 4.3623,2.91536 5.36713,3.16953 12.53072,3.16953 5.28507,0 8.90199,-0.52857 11.25391,-1.64463 1.97255,-0.93604 22.86248,-20.87048 48.48472,-46.26705 l 45.01891,-44.62241 28.21885,28.30871 c 43.92814,44.06801 62.77394,61.74015 67.81271,63.58955 5.46925,2.00739 13.88224,1.51079 18.99104,-1.121 z"
     id="path808" />
  <path
     style="fill:#d40000;stroke:#d40000;stroke-width:0.975238"
     d="M 236.73254,508.08572 C 214.73086,506.10657 189.40342,500.44985 169.06732,492.97313 154.74342,487.70684 129.685,475.05114 117.41766,466.88759 88.47638,447.62801 64.003527,423.09055 44.718188,393.99619 36.320824,381.32771 22.731164,354.02906 18.016368,340.3581 13.013698,325.8524 7.9085203,305.52547 6.2595253,293.54667 4.1469893,278.20056 3.432742,248.56952 4.7757634,231.99177 7.9929649,192.27984 22.37117,151.54484 45.354239,117.02857 63.470153,89.821857 89.49308,63.83067 117.01437,45.455841 147.32242,25.220405 181.88266,11.701231 217.03124,6.3315152 230.756,4.2347587 267.8227,3.3520531 282.33143,4.7764582 c 47.74861,4.6877581 97.54469,25.6217598 134.14193,56.3925498 37.76196,31.750076 64.36415,70.769622 79.32584,116.353522 8.17924,24.91977 10.946,40.60201 11.86682,67.26223 1.13497,32.86054 -1.66471,56.42864 -9.95856,83.83242 -12.83478,42.40748 -33.63463,76.48871 -65.80467,107.82314 -34.20917,33.32059 -74.33659,55.46554 -118.36374,65.32093 -24.44136,5.47114 -56.73319,8.13015 -76.80651,6.32447 z M 160.15588,313.0076 c 4.16121,-1.15568 28.09187,-23.62534 70.4436,-66.14294 l 25.31187,-25.41099 40.51671,40.19126 c 22.28419,22.1052 43.76537,42.81925 47.73596,46.03125 7.14492,5.77986 7.2922,5.84367 14.3034,6.19773 8.68491,0.43856 12.65682,-0.79241 18.14529,-5.62355 6.47508,-5.69958 9.09396,-11.6551 9.09396,-20.68029 0,-7.01744 -0.21566,-7.7643 -3.80151,-13.16572 -4.21962,-6.35606 -101.9805,-104.3851 -111.12236,-111.42718 -5.01538,-3.8634 -6.18505,-4.32103 -12.11749,-4.74097 -12.34238,-0.87367 -11.73142,-1.28724 -43.41024,29.38499 -38.38306,37.16344 -83.2049,82.96464 -86.21181,88.09556 -4.81834,8.22187 -3.90395,20.25059 2.14197,28.1772 2.6925,3.53004 9.54904,8.62589 12.66729,9.41445 3.52922,0.89249 12.60998,0.72495 16.30336,-0.3008 z"
     id="path810" />
  <path
     style="fill:#c60101;stroke:#aa0000;stroke-width:0.975238;fill-opacity:1"
     d="m 232.52934,509.02249 c -3.5731,-2.3554 -6.25797,-2.4369 -6.32525,-0.19201 -0.0429,1.43276 -0.29682,1.35449 -1.58181,-0.48762 -1.8305,-2.62413 -5.1796,-2.93662 -5.22615,-0.48762 -0.0278,1.45929 -0.29778,1.3886 -1.86299,-0.48762 -1.77145,-2.12345 -5.66224,-3.19083 -4.44362,-1.21905 0.33151,0.53638 0.13798,0.97524 -0.43006,0.97524 -0.56803,0 -1.03279,-0.65829 -1.03279,-1.46286 0,-0.81269 -0.86688,-1.46285 -1.95048,-1.46285 -1.07276,0 -1.95048,0.43885 -1.95048,0.97523 0,0.53638 -0.42508,0.97524 -0.94463,0.97524 -0.51954,0 -0.69202,-0.65828 -0.38328,-1.46286 0.38502,-1.00332 -0.0586,-1.46285 -1.41219,-1.46285 -1.08545,0 -2.1949,0.54857 -2.46544,1.21904 -0.29386,0.72825 -0.5229,0.53194 -0.56889,-0.48761 -0.0952,-2.11102 -3.00271,-2.29137 -3.00271,-0.18626 0,0.83623 -0.41969,1.26104 -0.93265,0.94401 -0.51295,-0.31702 -0.68542,-1.22064 -0.38328,-2.00804 0.34256,-0.89266 -0.0406,-1.43162 -1.01782,-1.43162 -0.86197,0 -1.5672,0.43886 -1.5672,0.97524 0,0.53638 -0.42509,0.97524 -0.94464,0.97524 -0.51953,0 -0.69202,-0.65829 -0.38327,-1.46286 0.35546,-0.92632 -0.0135,-1.46286 -1.00585,-1.46286 -0.86196,0 -1.56719,0.43886 -1.56719,0.97524 0,0.53638 -0.42509,0.97524 -0.94464,0.97524 -0.51954,0 -0.66278,-0.73447 -0.31831,-1.63217 0.46035,-1.19961 0.22526,-1.47827 -0.887,-1.05144 -0.83233,0.31939 -2.02394,0.0701 -2.64802,-0.55398 -0.86275,-0.86275 -1.35509,-0.78606 -2.05438,0.32003 -0.76878,1.21599 -0.92214,1.15753 -0.93463,-0.35631 -0.01,-1.2063 -0.50339,-1.62356 -1.47779,-1.24965 -0.80457,0.30874 -1.46285,0.0893 -1.46285,-0.48762 0,-0.57694 -0.60482,-0.81688 -1.34402,-0.53322 -0.73921,0.28366 -1.83635,0.0234 -2.43809,-0.57832 -0.60175,-0.60175 -1.09408,-0.73315 -1.09408,-0.29201 0,0.44115 -0.65829,0.25576 -1.46286,-0.41198 -0.80457,-0.66773 -1.46958,-0.83118 -1.47779,-0.36322 -0.008,0.46796 -0.44707,0.19256 -0.97524,-0.61202 -0.8536,-1.30031 -1.067,-1.30031 -1.92061,0 -0.80972,1.23348 -0.96265,1.17652 -0.97524,-0.36321 -0.0124,-1.51224 -0.26636,-1.61743 -1.47779,-0.61202 -1.20168,0.99729 -1.46285,0.92128 -1.46285,-0.42576 0,-0.90191 -0.43886,-1.3686 -0.97524,-1.0371 -0.53638,0.3315 -0.97524,0.0843 -0.97524,-0.54948 0,-0.85862 -0.37274,-0.84286 -1.46286,0.0618 -1.21143,1.0054 -1.46542,0.90021 -1.47779,-0.61202 -0.0126,-1.53588 -0.16515,-1.5936 -0.9603,-0.36319 -0.82757,1.28058 -0.94723,1.2697 -0.96031,-0.0873 -0.0212,-2.19727 -4.92198,-4.35488 -6.00684,-2.64455 -0.59493,0.93793 -0.80879,0.80874 -0.81983,-0.49527 -0.008,-0.97032 -0.45378,-1.49299 -0.99017,-1.16149 -0.53638,0.3315 -0.97523,0.11208 -0.97523,-0.48762 0,-0.59969 -0.40138,-0.84228 -0.89195,-0.5391 -0.49056,0.30319 -1.03913,0.16448 -1.21904,-0.30823 -0.48715,-1.28002 -12.18554,-6.96155 -12.88786,-6.25922 -0.33273,0.33273 -0.60496,0.10424 -0.60496,-0.50777 0,-1.34067 -5.34875,-4.26614 -6.21541,-3.39948 -0.33619,0.33619 -0.61126,0.0733 -0.61126,-0.58407 0,-0.65744 -0.39287,-0.95253 -0.87305,-0.65576 -0.48017,0.29676 -1.13536,-0.144 -1.45596,-0.9795 -0.32061,-0.83549 -1.02488,-1.24592 -1.56506,-0.91208 -0.54016,0.33384 -0.98884,0.0325 -0.99705,-0.66961 -0.0117,-0.99929 -0.20038,-0.9838 -0.86863,0.0713 -0.66992,1.05774 -0.99672,0.89725 -1.51813,-0.74559 -0.36545,-1.15142 -1.02573,-1.87021 -1.46728,-1.59731 -0.44156,0.27289 -1.06516,-0.1874 -1.38576,-1.0229 -0.32061,-0.83549 -0.97889,-1.27434 -1.46286,-0.97524 -0.48397,0.29912 -1.15568,-0.17474 -1.4927,-1.053 -0.33702,-0.87826 -0.88818,-1.32142 -1.22481,-0.9848 -0.33662,0.33663 -1.19005,-0.14913 -1.8965,-1.07946 -1.04715,-1.37899 -1.29285,-1.42122 -1.32986,-0.22865 -0.0271,0.87316 -0.53101,0.52413 -1.25006,-0.86582 -0.66256,-1.28077 -1.55759,-2.24895 -1.98894,-2.1515 -0.43135,0.0974 -1.6236,-0.82951 -2.64946,-2.0599 -1.02585,-1.23039 -1.87979,-1.84874 -1.89763,-1.37412 -0.0179,0.47462 -0.96019,-0.31649 -2.0941,-1.75802 -1.133922,-1.44154 -2.279866,-2.40278 -2.546565,-2.13608 -0.266698,0.2667 -1.587844,-0.82587 -2.935885,-2.42792 -1.34804,-1.60206 -2.638586,-2.72523 -2.867879,-2.49594 -0.229294,0.2293 -2.660142,-1.955 -5.401885,-4.85399 -2.741744,-2.89898 -6.45198,-6.17754 -8.244972,-7.28566 -1.792991,-1.10814 -3.0475,-2.35859 -2.787799,-2.7788 0.259701,-0.4202 -2.251555,-3.34501 -5.580568,-6.49956 -3.329014,-3.15455 -5.955991,-6.05415 -5.837726,-6.44355 0.118266,-0.38941 -1.080797,-1.66605 -2.664584,-2.837 -1.583787,-1.17094 -2.663431,-2.47877 -2.399211,-2.90629 0.264221,-0.42752 -0.626959,-1.50288 -1.980397,-2.38968 -1.353439,-0.88682 -2.220392,-2.00137 -1.926561,-2.4768 0.293831,-0.47542 -0.600105,-1.38126 -1.986524,-2.01295 -1.734286,-0.79019 -2.147654,-1.37913 -1.324901,-1.88762 0.817059,-0.50497 0.353682,-1.1228 -1.462857,-1.95047 -1.92235,-0.87589 -2.313421,-1.43466 -1.411997,-2.01751 0.89917,-0.58139 0.612031,-0.97976 -1.030005,-1.42901 -1.65975,-0.4541 -1.930395,-0.83693 -0.998714,-1.41275 0.938923,-0.58029 0.637351,-1.0455 -1.136605,-1.75336 -1.328041,-0.52989 -1.756334,-1.00524 -0.951763,-1.05631 1.200285,-0.0762 1.159244,-0.32337 -0.22865,-1.37729 -0.93033,-0.70645 -1.388352,-1.58761 -1.017828,-1.95814 0.370525,-0.37052 -0.33168,-0.93659 -1.560457,-1.25792 -1.672288,-0.43731 -1.906835,-0.79172 -0.932649,-1.40924 1.053084,-0.66754 1.057834,-0.82786 0.02489,-0.83994 -0.702132,-0.008 -1.022045,-0.42681 -0.710918,-0.93023 0.311129,-0.50342 -0.211543,-1.36778 -1.161492,-1.92082 -0.949947,-0.55304 -1.40246,-1.01887 -1.005583,-1.03518 0.869365,-0.0357 -11.977107,-24.75814 -13.107803,-25.22533 -0.435412,-0.17991 -0.563921,-0.69559 -0.285573,-1.14596 0.657213,-1.0634 -1.517309,-5.84122 -2.658507,-5.84122 -0.481939,0 -0.605025,-0.43886 -0.273523,-0.97524 0.331502,-0.53638 -0.19117,-0.98196 -1.161492,-0.99017 -1.513402,-0.0128 -1.556247,-0.16201 -0.301365,-1.04948 1.106732,-0.7827 1.164607,-1.15546 0.237733,-1.53122 -0.673818,-0.27317 -0.977061,-0.89805 -0.673873,-1.38861 0.303189,-0.49057 -0.242649,-0.89867 -1.212971,-0.90688 -1.498996,-0.0127 -1.544301,-0.1593 -0.301365,-0.97524 1.300317,-0.8536 1.300317,-1.067 0,-1.92061 -0.804572,-0.52817 -1.079979,-0.96703 -0.612016,-0.97524 0.467962,-0.008 0.304513,-0.67321 -0.363222,-1.47779 -0.667735,-0.80457 -0.887164,-1.46285 -0.487619,-1.46285 0.399544,0 0.180115,-0.65829 -0.487619,-1.46286 -0.667735,-0.80457 -0.887164,-1.46286 -0.487619,-1.46286 0.399544,0 0.180115,-0.65828 -0.487619,-1.46285 -0.667735,-0.80458 -0.853128,-1.46286 -0.411985,-1.46286 0.441144,0 0.309745,-0.49233 -0.291996,-1.09408 -0.601741,-0.60174 -0.861989,-1.69889 -0.578327,-2.4381 0.319471,-0.83252 -0.173465,-1.37331 -1.295257,-1.42101 -1.026587,-0.0436 -1.282989,-0.29004 -0.591959,-0.56888 1.786782,-0.72099 1.48671,-2.27984 -0.438857,-2.27984 -1.289482,0 -1.397841,-0.26006 -0.487619,-1.17028 1.655055,-1.65506 1.451995,-2.71796 -0.536381,-2.80766 -1.0195514,-0.046 -1.2158697,-0.27503 -0.487619,-0.56889 1.832071,-0.73926 1.46553,-3.24395 -0.4876195,-3.33207 -1.019551,-0.046 -1.2158693,-0.27502 -0.4876191,-0.56888 1.8320716,-0.73926 1.4655306,-3.24396 -0.487619,-3.33207 -1.0195506,-0.046 -1.2158695,-0.27503 -0.4876191,-0.56888 1.8320717,-0.73926 1.4655303,-3.24396 -0.487619,-3.33207 -1.0195506,-0.046 -1.2158695,-0.27503 -0.4876191,-0.56889 0.6704762,-0.27054 1.2190477,-1.31926 1.2190477,-2.33049 0,-1.23364 -0.4813271,-1.6539 -1.4628572,-1.27725 -0.8045714,0.30875 -1.4628571,0.0755 -1.4628571,-0.51823 0,-0.59377 0.4388571,-1.07957 0.9752381,-1.07957 1.8429128,0 0.9736056,-2.62845 -1.2190477,-3.68593 -1.8366808,-0.88579 -1.9050944,-1.06901 -0.4197902,-1.12426 1.2686361,-0.0472 1.6856559,-0.69153 1.4628571,-2.26029 -0.1714031,-1.20682 -0.8602117,-2.2491 -1.5306879,-2.31615 -2.4612928,-0.24613 -2.5337532,-0.39009 -0.8252074,-1.63941 1.9463942,-1.42323 1.8036897,-6.19981 -0.1731839,-5.79678 -1.4305455,0.29164 -1.6116562,-2.30984 -0.2206563,-3.16953 0.5363809,-0.3315 0.9752381,-3.03749 0.9752381,-6.01332 0,-4.57402 -0.2428763,-5.31739 -1.5708173,-4.80781 -1.3470505,0.51691 -1.463869,0.0803 -0.8200523,-3.06518 1.2971244,-6.33729 1.0454208,-29.74148 -0.3463703,-32.20661 -0.8756219,-1.5509 -0.9527418,-2.71084 -0.2593583,-3.90095 0.902582,-1.54917 0.9906165,-1.52726 1.0313999,0.25673 0.037016,1.61918 0.2051645,1.70201 0.9899602,0.48762 1.2423451,-1.92239 1.2423451,-7.52171 0,-8.28952 -1.5785491,-0.9756 -1.1514919,-3.41975 0.487619,-2.79077 1.1104871,0.42614 1.4628572,-0.18238 1.4628572,-2.52626 0,-1.69818 -0.4085329,-2.83512 -0.9078508,-2.52653 -0.4993179,0.3086 -1.1639762,0.14667 -1.4770184,-0.35984 -0.3130422,-0.50652 0.3149193,-1.20154 1.3954698,-1.54449 2.4358408,-0.77311 2.643747,-4.3668 0.2579708,-4.45907 -1.358787,-0.0526 -1.2593928,-0.28172 0.487619,-1.12426 2.1926533,-1.05748 3.0619605,-3.68593 1.2190477,-3.68593 -0.536381,0 -0.9752381,-0.43885 -0.9752381,-0.97523 0,-0.53638 0.6582857,-0.97524 1.4628571,-0.97524 0.8045714,0 1.4628572,-0.65829 1.4628572,-1.46286 0,-0.80457 -0.5227358,-1.46286 -1.161635,-1.46286 -0.6388993,0 -0.3097564,-0.68585 0.7314286,-1.52412 1.3427084,-1.08103 1.53866,-1.6717 0.6740159,-2.03174 -1.6966542,-0.70651 -1.5278818,-2.29556 0.2438095,-2.29556 1.7666891,0 1.9586691,-2.56312 0.2438095,-3.25508 -0.7282502,-0.29386 -0.5319319,-0.52289 0.4876191,-0.56888 1.7635655,-0.0796 2.4662935,-2.02747 0.7314285,-2.02747 -0.536381,0 -0.975238,-0.43886 -0.975238,-0.97524 0,-0.53638 0.658286,-0.97524 1.462857,-0.97524 1.771335,0 1.94187,-1.59465 0.24381,-2.27983 -0.728251,-0.29386 -0.531932,-0.5229 0.487619,-0.56889 1.988377,-0.0897 2.191436,-1.1526 0.536381,-2.80766 -0.910222,-0.91022 -0.801863,-1.17029 0.487619,-1.17029 1.925567,0 2.225639,-1.55885 0.438857,-2.27983 -0.72825,-0.29386 -0.531932,-0.52289 0.487619,-0.56889 1.968173,-0.0887 2.287186,-1.63068 0.487619,-2.35682 -0.72825,-0.29386 -0.531932,-0.5229 0.487619,-0.56889 1.968173,-0.0888 2.287186,-1.63069 0.487619,-2.35683 -0.72825,-0.29386 -0.531932,-0.52289 0.487619,-0.56888 1.968173,-0.0887 2.287186,-1.63069 0.487619,-2.35683 -0.707227,-0.28538 -0.478334,-0.52422 0.545175,-0.56889 0.970322,-0.0423 1.511735,-0.48553 1.203139,-0.98484 -0.308595,-0.49932 -0.06822,-1.21247 0.534183,-1.58476 0.776021,-0.47962 0.709593,-0.92129 -0.227901,-1.51532 -1.030742,-0.65311 -0.945987,-0.8417 0.383499,-0.85333 1.965041,-0.0172 2.294113,-1.56584 0.487619,-2.29477 -0.670476,-0.27054 -0.341333,-0.53326 0.731429,-0.58382 1.62319,-0.0765 1.705012,-0.25055 0.487619,-1.0373 -1.250155,-0.80791 -1.214705,-0.94754 0.24381,-0.9603 1.96504,-0.0172 2.294113,-1.56584 0.487619,-2.29477 -0.670477,-0.27054 -0.341334,-0.53326 0.731428,-0.58382 1.62319,-0.0765 1.705012,-0.25055 0.487619,-1.0373 -1.24031,-0.80154 -1.194463,-0.94764 0.301365,-0.9603 0.970322,-0.008 1.51616,-0.41631 1.212971,-0.90688 -0.303188,-0.49056 5.6e-5,-1.11545 0.673873,-1.38861 0.926874,-0.37576 0.869,-0.74852 -0.237733,-1.53122 -1.234451,-0.87302 -1.158316,-1.03922 0.487619,-1.06442 1.617873,-0.0248 1.701023,-0.19107 0.487619,-0.97523 -1.213403,-0.78416 -1.130253,-0.95047 0.48762,-0.97524 1.617872,-0.0248 1.701022,-0.19108 0.487619,-0.97524 -1.213404,-0.78416 -1.130254,-0.95047 0.487619,-0.97524 1.617872,-0.0248 1.701023,-0.19108 0.487619,-0.97524 -1.213404,-0.78416 -1.130253,-0.95046 0.487619,-0.97523 1.617872,-0.0248 1.701023,-0.19108 0.487619,-0.97524 -1.213404,-0.78416 -1.130253,-0.95047 0.487619,-0.97524 1.617872,-0.0248 1.701023,-0.19108 0.487619,-0.97524 -1.213404,-0.78416 -1.130253,-0.95047 0.487619,-0.97524 1.617872,-0.0248 1.701023,-0.19107 0.487619,-0.97523 -1.213404,-0.78416 -1.130253,-0.95047 0.487619,-0.97524 1.617872,-0.0248 1.701023,-0.19108 0.487619,-0.97524 -1.213404,-0.78416 -1.130253,-0.95047 0.487619,-0.97524 1.617872,-0.0248 1.701023,-0.19108 0.487619,-0.97524 -1.256343,-0.81191 -1.226767,-0.94748 0.209497,-0.9603 2.034693,-0.0181 4.462686,-3.87746 2.506721,-3.98444 -0.689348,-0.0377 -0.375646,-0.4457 0.697115,-0.90669 1.353272,-0.58152 1.502573,-0.87806 0.48762,-0.9685 -0.875232,-0.078 -0.556251,-0.49397 0.794082,-1.03554 1.241316,-0.49784 1.983417,-1.34774 1.649111,-1.88866 -0.334305,-0.54091 -0.03335,-0.99021 0.668775,-0.99842 1.032948,-0.0121 1.028198,-0.1724 -0.02489,-0.83994 -0.972805,-0.61664 -0.726515,-0.98231 0.975238,-1.4479 1.710304,-0.46793 1.952932,-0.83187 0.975238,-1.46285 -0.986196,-0.63647 -0.785233,-0.97497 0.829553,-1.39724 1.172073,-0.30651 1.869978,-0.97969 1.5509,-1.49597 -0.319078,-0.51628 0.138436,-1.21444 1.016698,-1.55145 0.878261,-0.33702 1.321419,-0.88819 0.984795,-1.22481 -0.336624,-0.33663 0.149134,-1.20509 1.079464,-1.92992 1.602225,-1.24831 1.601424,-1.2865 -0.01516,-0.72351 -2.802264,0.97589 -1.93021,-0.54888 0.975238,-1.70519 1.677479,-0.6676 2.192658,-1.24777 1.375574,-1.54908 -0.905549,-0.33394 -0.639917,-0.82188 0.865819,-1.59043 1.194682,-0.60977 2.092419,-1.4616 1.994972,-1.89295 -0.09745,-0.43135 0.829506,-1.6236 2.059896,-2.64946 1.23039,-1.02585 1.848746,-1.87979 1.374124,-1.89763 -0.474621,-0.0179 0.284968,-0.9354 1.687974,-2.039 1.403007,-1.103611 2.449619,-2.349526 2.325805,-2.768703 -0.123813,-0.41918 1.202347,-1.969947 2.947024,-3.446149 1.744677,-1.476203 3.061248,-2.973145 2.925714,-3.32654 -0.28777,-0.750337 24.484538,-25.323635 25.004524,-24.803648 0.192587,0.192587 1.572566,-1.094662 3.06662,-2.860554 1.494054,-1.765892 3.074121,-3.104513 3.511255,-2.974711 0.43714,0.129801 1.752844,-1.059824 2.923793,-2.64361 1.170934,-1.583787 2.476024,-2.665124 2.900194,-2.402973 0.42417,0.262151 1.25412,-0.425659 1.84433,-1.528467 0.5902,-1.102808 1.46909,-1.760364 1.9531,-1.461236 0.484,0.299129 1.54154,-0.676008 2.35011,-2.16697 0.82154,-1.514872 1.50103,-2.065458 1.54019,-1.247984 0.0573,1.196661 0.30379,1.155054 1.35452,-0.228651 0.70645,-0.93033 1.55988,-1.416088 1.8965,-1.079463 0.33663,0.336624 0.88779,-0.106534 1.22481,-0.984796 0.33702,-0.878262 1.00873,-1.352117 1.4927,-1.053009 0.48397,0.299106 1.14225,-0.139751 1.46286,-0.975238 0.3206,-0.835489 1.00533,-1.258005 1.52161,-0.938927 0.51628,0.319078 1.18946,-0.378827 1.49597,-1.5509 0.3789,-1.448935 0.792,-1.751254 1.29059,-0.944506 0.50004,0.809059 0.95629,0.484037 1.43418,-1.021653 0.54563,-1.719106 0.88993,-1.909647 1.55454,-0.860285 0.66824,1.055097 0.85693,1.070586 0.86862,0.0713 0.008,-0.702131 0.45379,-1.005374 0.99017,-0.673872 0.53638,0.331502 0.97524,0.137973 0.97524,-0.430064 0,-0.568036 0.65829,-1.032793 1.46286,-1.032793 0.80457,0 1.46957,-0.768 1.47779,-1.706667 0.0128,-1.458514 0.15239,-1.493964 0.9603,-0.24381 0.68695,1.062977 0.94946,1.11389 0.96031,0.186254 0.008,-0.702131 0.45379,-1.005375 0.99017,-0.673873 0.53638,0.331502 0.97524,0.112074 0.97524,-0.487619 0,-0.599692 0.46839,-0.800864 1.04088,-0.44705 0.57735,0.356823 1.28905,-0.305701 1.59816,-1.487743 0.42034,-1.607387 0.76,-1.811231 1.38227,-0.829553 0.61055,0.963164 0.83278,0.794459 0.85488,-0.648987 0.0248,-1.617872 0.19108,-1.701023 0.97524,-0.487619 0.78416,1.213404 0.95046,1.130253 0.97523,-0.487619 0.0248,-1.617872 0.19108,-1.701023 0.97524,-0.487619 0.78416,1.213404 0.95047,1.130253 0.97524,-0.487619 0.0248,-1.617872 0.19108,-1.701023 0.97524,-0.487619 0.78416,1.213404 0.95047,1.130253 0.97524,-0.487619 0.0248,-1.617872 0.19107,-1.701023 0.97523,-0.487619 0.78416,1.213404 0.95047,1.130253 0.97524,-0.487619 0.0248,-1.617873 0.19108,-1.701023 0.97524,-0.487619 0.78416,1.213403 0.95047,1.130253 0.97524,-0.487619 0.0248,-1.617873 0.19108,-1.701023 0.97524,-0.48762 0.78416,1.213404 0.95046,1.130254 0.97523,-0.487619 0.0252,-1.645935 0.1914,-1.72207 1.06442,-0.487619 0.7827,1.106733 1.15546,1.164607 1.53122,0.237733 0.27316,-0.673817 0.89805,-0.977061 1.38861,-0.673873 0.49057,0.303189 0.89866,-0.242649 0.90688,-1.212971 0.0127,-1.495828 0.15876,-1.541675 0.9603,-0.301365 0.78675,1.217393 0.9608,1.135571 1.0373,-0.487619 0.0506,-1.072762 0.31328,-1.401905 0.58382,-0.731428 0.72893,1.806494 2.27757,1.477421 2.29477,-0.487619 0.0128,-1.458515 0.15239,-1.493965 0.9603,-0.24381 0.78675,1.217393 0.9608,1.135571 1.0373,-0.487619 0.0506,-1.072762 0.31328,-1.401905 0.58382,-0.731429 0.72893,1.806494 2.27757,1.477422 2.29477,-0.487619 0.0128,-1.458514 0.15239,-1.493964 0.9603,-0.243809 0.78675,1.217392 0.9608,1.135571 1.0373,-0.487619 0.0506,-1.072762 0.31328,-1.401905 0.58382,-0.731429 0.72615,1.799567 2.26804,1.480554 2.35683,-0.487619 0.046,-1.019551 0.27503,-1.215869 0.56889,-0.487619 0.72614,1.799567 2.26803,1.480554 2.35683,-0.487619 0.046,-1.019551 0.27502,-1.215869 0.56888,-0.487619 0.72614,1.799567 2.26803,1.480554 2.35683,-0.487619 0.046,-1.019551 0.27503,-1.215869 0.56889,-0.487619 0.72614,1.799567 2.26803,1.480554 2.35682,-0.487619 0.046,-1.019551 0.27503,-1.215869 0.56889,-0.487619 0.68518,1.69806 2.27983,1.527525 2.27983,-0.24381 0,-0.804571 0.46476,-1.462857 1.0328,-1.462857 0.56804,0 0.76156,0.438857 0.43006,0.975238 -0.3315,0.536381 -0.13798,0.975238 0.43006,0.975238 0.56804,0 1.0328,-0.397771 1.0328,-0.883936 0,-0.486166 0.87771,-0.654409 1.95047,-0.373876 1.35648,0.354727 1.95048,0.02992 1.95048,-1.06654 0,-0.86713 0.46476,-1.5766 1.0328,-1.5766 0.56803,0 0.76156,0.438857 0.43006,0.975238 -0.33151,0.536381 -0.18493,0.975238 0.32572,0.975238 0.51065,0 1.21845,-0.755701 1.57288,-1.679335 0.54987,-1.4329413 0.77416,-1.4694104 1.52869,-0.2485604 0.74763,1.2096974 1.11146,1.1301294 2.35461,-0.5149504 0.81088,-1.0730453 1.48427,-1.3989687 1.50137,-0.7266779 0.0436,1.7138087 2.95673,1.5303007 2.95673,-0.1862539 0,-0.7729158 0.51343,-1.7226224 1.14097,-2.110459 0.76717,-0.4741406 0.93695,-0.1734983 0.51822,0.9176825 -0.39293,1.0239695 -0.1327,1.62284 0.70517,1.62284 0.73035,0 1.58051,-0.6582858 1.88927,-1.4628572 0.30874,-0.8045714 1.03987,-1.4628571 1.62474,-1.4628571 0.58487,0 0.79218,0.4388571 0.46068,0.9752381 -1.23703,2.0015437 2.26448,0.8890344 3.83683,-1.2190477 1.15483,-1.5483314 1.48596,-1.6918768 1.12479,-0.487619 -0.74692,2.4905245 2.1435,2.1671265 4.35818,-0.487619 1.56521,-1.8762249 1.83524,-1.9469051 1.86299,-0.4876191 0.041,2.1570291 4.71792,2.3631826 5.5312,0.2438095 0.624,-1.6261257 3.27839,-2.0209321 3.27839,-0.487619 0,1.0734245 8.63135,1.3442026 11.21724,0.3519015 1.3054,-0.500926 1.36894,-0.7971401 0.32358,-1.508376 -0.80557,-0.5480845 0.92695,-0.6611668 4.5506,-0.2970198 11.93743,1.199611 27.79429,1.567015 27.79429,0.6439945 0,-0.5101705 1.536,-1.1069019 3.41333,-1.32607 2.2151,-0.2585999 3.41334,0.00967 3.41334,0.7642016 0,2.3839782 6.51567,3.2340243 8.64283,1.1275587 0.98599,-0.9763974 1.4227,-0.8793372 2.19398,0.487619 0.52964,0.9386667 1.78669,1.7066667 2.79348,1.7066667 1.00677,0 2.03559,-0.768 2.28626,-1.7066667 0.38597,-1.4453644 0.56365,-1.3707066 1.16048,0.4876191 0.83399,2.5967268 4.03875,2.9298596 4.69094,0.487619 0.38597,-1.4453644 0.56366,-1.3707066 1.16049,0.487619 0.6927,2.1568037 3.40297,3.1277056 3.40297,1.2190477 0,-0.536381 0.43885,-0.9752381 0.97523,-0.9752381 0.53638,0 0.97524,0.6582857 0.97524,1.4628571 0,2.0398502 2.68255,1.8378926 3.23846,-0.2438095 0.38597,-1.4453644 0.56365,-1.3707066 1.16048,0.487619 0.79678,2.4808608 1.52015,2.7117688 3.20792,1.024 0.91022,-0.9102222 1.17028,-0.8018624 1.17028,0.4876191 0,1.9132057 2.52292,2.2533507 3.25508,0.4388571 0.29386,-0.7282504 0.52289,-0.5319315 0.56888,0.4876191 0.0897,1.9883765 1.15261,2.1914365 2.80766,0.5363805 0.91022,-0.9102218 1.17029,-0.801862 1.17029,0.487619 0,1.925568 1.55885,2.22564 2.27983,0.438858 0.29386,-0.728251 0.5229,-0.531932 0.56889,0.487619 0.0897,1.988377 1.1526,2.191436 2.80766,0.536381 0.91022,-0.910222 1.17029,-0.801863 1.17029,0.487619 0,1.925567 1.55885,2.225639 2.27983,0.438857 0.29386,-0.72825 0.52289,-0.531932 0.56889,0.487619 0.0887,1.968173 1.63068,2.287186 2.35682,0.487619 0.29386,-0.72825 0.5229,-0.531932 0.56889,0.487619 0.0888,1.968173 1.63069,2.287186 2.35683,0.487619 0.27679,-0.68597 0.52556,-0.420521 0.56888,0.607032 0.0637,1.510722 0.32962,1.616415 1.53986,0.612016 1.21143,-1.005403 1.46542,-0.900215 1.47778,0.612015 0.0126,1.53592 0.16516,1.593636 0.96031,0.363223 0.80792,-1.250155 0.94754,-1.214705 0.96031,0.243809 0.0172,1.965041 1.56583,2.294113 2.29476,0.487619 0.31224,-0.773788 0.52002,-0.637228 0.56889,0.373876 0.0877,1.813848 3.94057,3.228085 4.0465,1.485299 0.0377,-0.620261 0.4457,-0.250032 0.90668,0.82273 0.57017,1.326846 0.86955,1.482753 0.93635,0.487619 0.0749,-1.115165 0.35003,-1.029406 1.15772,0.360816 0.8555,1.472505 1.2225,1.566402 1.90589,0.487619 0.64333,-1.015546 0.85353,-0.868151 0.87623,0.614422 0.0248,1.617872 0.19108,1.701023 0.97524,0.487619 0.8206,-1.26978 0.94735,-1.251372 0.96031,0.13947 0.0192,2.058027 3.02567,3.24104 4.06679,1.600228 0.56367,-0.888346 0.80314,-0.685459 0.82433,0.698398 0.0248,1.617872 0.19108,1.701022 0.97524,0.487619 0.78416,-1.213404 0.95047,-1.130254 0.97524,0.487619 0.0248,1.617872 0.19108,1.701023 0.97524,0.487619 0.78416,-1.213404 0.95046,-1.130253 0.97523,0.487619 0.0248,1.617872 0.19108,1.701023 0.97524,0.487619 0.78416,-1.213404 0.95047,-1.130253 0.97524,0.487619 0.0248,1.617872 0.19108,1.701023 0.97524,0.487619 0.78416,-1.213404 0.95047,-1.130253 0.97524,0.487619 0.0248,1.617872 0.19107,1.701023 0.97523,0.487619 0.78416,-1.213404 0.95047,-1.130253 0.97524,0.487619 0.0248,1.617872 0.19108,1.701023 0.97524,0.487619 0.78416,-1.213404 0.95047,-1.130253 0.97524,0.487619 0.0248,1.617872 0.19108,1.701023 0.97524,0.487619 0.81191,-1.256343 0.94748,-1.226767 0.9603,0.209497 0.0192,2.152187 3.54717,4.19912 4.24784,2.464616 0.26912,-0.66619 0.53066,-0.333541 0.58123,0.73922 0.0765,1.623191 0.25055,1.705012 1.03729,0.48762 0.81192,-1.256343 0.94749,-1.226768 0.96031,0.209496 0.0181,2.031922 3.88105,4.466301 3.9777,2.506721 0.034,-0.689348 0.46914,-0.237738 0.96699,1.00358 0.49784,1.241316 1.34774,1.983416 1.88866,1.649111 0.54091,-0.334306 0.99021,-0.03335 0.99842,0.668774 0.0121,1.032948 0.1724,1.028198 0.83994,-0.02489 0.61664,-0.972805 0.98231,-0.726514 1.4479,0.975238 0.46793,1.710304 0.83187,1.952932 1.46285,0.975238 0.63099,-0.977694 0.99493,-0.735065 1.46286,0.975238 0.51713,1.890155 0.78596,2.028344 1.58322,0.813871 0.8298,-1.264025 0.96237,-1.239912 0.97527,0.177401 0.008,0.902142 1.3315,2.57774 2.94065,3.723551 1.60914,1.145811 2.92571,1.785361 2.92571,1.421224 0,-0.364137 0.86311,0.37398 1.91803,1.640259 1.05491,1.266279 1.93263,1.914 1.95048,1.439378 0.0178,-0.474621 0.96019,0.31649 2.0941,1.758026 1.13391,1.441534 2.27619,2.406437 2.5384,2.144227 0.26222,-0.26221 1.51488,0.702108 2.78371,2.142927 1.40824,1.599116 2.31898,2.08776 2.3378,1.254303 0.017,-0.750955 1.28314,0.346188 2.81375,2.438095 1.53062,2.091906 3.83462,4.669536 5.12,5.728065 1.28539,1.05853 1.78849,1.299902 1.11802,0.536381 -0.67048,-0.76352 -1.21648,-1.849018 -1.21334,-2.412218 0.007,-1.300732 13.05097,12.270485 13.13257,13.663668 0.0553,0.944383 8.96569,11.520642 15.31242,18.175195 1.43378,1.503331 2.3115,2.747931 1.95047,2.765781 -0.36103,0.0178 0.37963,0.89556 1.64591,1.95047 1.26629,1.05492 1.92458,1.93263 1.46286,1.95048 -0.46171,0.0178 0.1293,0.84107 1.31335,1.82941 1.18405,0.98832 1.88923,2.06054 1.56708,2.38269 -0.32215,0.32215 0.13285,0.86148 1.01111,1.1985 0.87826,0.33701 1.38815,0.95042 1.13309,1.36312 -0.25505,0.41269 0.57912,1.87563 1.85373,3.25095 1.27461,1.37533 2.08129,2.73678 1.79262,3.02545 -0.28867,0.28867 0.19373,0.8006 1.07199,1.13762 0.87826,0.33702 1.36392,0.98963 1.07925,1.45024 -0.28468,0.46062 0.26641,1.65805 1.22465,2.66099 0.95823,1.00292 1.87607,2.44522 2.03964,3.20509 0.16357,0.75987 1.01545,1.93016 1.89307,2.60064 0.8776,0.67047 1.28495,1.21904 0.9052,1.21904 -0.37973,0 0.42149,2.19429 1.78052,4.87619 1.52219,3.00391 3.11994,4.88193 4.16119,4.89112 1.44786,0.0128 1.48046,0.1505 0.22738,0.96031 -1.2134,0.78416 -1.13026,0.95047 0.48762,0.97524 1.41262,0.0216 1.59875,0.25293 0.67501,0.83878 -1.02871,0.65243 -0.94661,1.49853 0.42444,4.37364 0.93494,1.9606 2.08337,3.56472 2.55206,3.56472 0.46869,0 0.58094,0.43886 0.24944,0.97524 -0.3315,0.53638 -0.15175,0.97524 0.39946,0.97524 0.5512,0 0.77128,0.6017 0.48908,1.33711 -0.2822,0.73541 0.14953,1.99973 0.95941,2.80961 0.80987,0.80988 1.20083,1.74419 0.86878,2.07622 -0.33204,0.33205 0.23743,0.61045 1.26549,0.61866 1.58759,0.0127 1.6488,0.1708 0.40635,1.04948 -1.10673,0.7827 -1.16461,1.15546 -0.23773,1.53122 0.67382,0.27317 0.97706,0.89805 0.67387,1.38861 -0.30319,0.49057 0.24265,0.9266 1.21297,0.96894 1.02351,0.0447 1.2524,0.28351 0.54518,0.56889 -1.8065,0.72893 -1.47742,2.27757 0.48761,2.29476 1.47273,0.0129 1.50615,0.15675 0.24381,1.04948 -1.04532,0.73927 -1.13055,1.17052 -0.29859,1.51094 0.64035,0.26201 0.92253,1.10631 0.62708,1.87623 -0.29543,0.76991 -0.0651,1.39985 0.51181,1.39985 0.57693,0 0.79636,0.65828 0.48762,1.46286 -0.30875,0.80457 -0.0893,1.46285 0.48762,1.46285 0.58011,0 0.76901,0.72954 0.42265,1.63217 -0.4745,1.23651 -0.23067,1.48033 1.00584,1.00584 0.89769,-0.34447 1.63216,-0.20123 1.63216,0.31831 0,0.51955 -0.43885,0.94464 -0.97523,0.94464 -1.73486,0 -1.03214,1.94791 0.73143,2.02747 1.01955,0.046 1.21586,0.27502 0.48761,0.56888 -1.78678,0.72099 -1.48671,2.27984 0.43886,2.27984 1.28948,0 1.39784,0.26006 0.48762,1.17028 -1.62698,1.62698 -1.46046,2.73067 0.41198,2.73067 1.2903,0 1.36001,0.26781 0.37779,1.45132 -0.97863,1.17918 -0.89426,1.57036 0.44997,2.08619 1.32138,0.50705 1.39257,0.80762 0.35365,1.49293 -1.0356,0.68311 -0.91485,1.15253 0.59225,2.30237 1.04118,0.79438 1.37032,1.44433 0.73142,1.44433 -1.99912,0 -1.26624,2.10573 0.93304,2.68085 2.00398,0.52406 2.01702,0.60455 0.30123,1.85918 -1.73493,1.26861 -1.73169,1.35812 0.0996,2.74324 1.06634,0.80655 1.3607,1.44539 0.67401,1.46286 -1.71692,0.0437 -1.52226,2.90159 0.24381,3.57929 0.80457,0.30875 1.46286,0.97916 1.46286,1.48981 0,0.51065 -0.43886,0.65723 -0.97524,0.32572 -0.55311,-0.34184 -0.97524,0.4775 -0.97524,1.89292 0,1.37261 0.32915,2.44368 0.73143,2.38017 1.95502,-0.30869 3.2224,0.21619 2.67208,1.10663 -0.33691,0.54513 -1.0211,0.73866 -1.52042,0.43006 -0.50046,-0.3093 -0.90115,1.10584 -0.89292,3.15362 0.01,2.45248 0.29982,3.2651 0.85334,2.39154 0.64493,-1.01783 1.00788,-1.04894 1.57287,-0.13478 0.40395,0.65361 0.19932,1.51913 -0.45474,1.92336 -0.85636,0.52925 -1.00616,2.61421 -0.53521,7.44906 0.94636,9.71531 0.97459,36.81547 0.0464,44.54109 -0.69518,5.78624 -0.57676,6.77915 0.94086,7.88887 1.57858,1.15428 1.59096,1.3252 0.13645,1.88335 -0.92429,0.35468 -1.65122,0.11209 -1.72175,-0.57458 -0.15785,-1.5369 -1.66134,6.88796 -1.75612,9.84054 -0.0398,1.23851 0.33625,1.99935 0.83556,1.69076 0.49932,-0.30861 1.18351,-0.11507 1.52042,0.43006 0.33916,0.54879 -0.28365,0.99114 -1.39548,0.99114 -1.37707,0 -2.00803,0.63097 -2.00803,2.00804 0,1.24407 0.41916,1.74897 1.10175,1.3271 0.67478,-0.41703 0.91099,-0.15587 0.60952,0.67387 -0.27072,0.74514 -0.98594,1.24509 -1.58937,1.11099 -0.60343,-0.13409 -1.09714,0.41448 -1.09714,1.21905 0,0.80457 0.43885,1.46286 0.97524,1.46286 0.53638,0 0.97523,0.43886 0.97523,0.97524 0,0.53638 -0.65828,0.97523 -1.46285,0.97523 -0.80458,0 -1.46286,0.65829 -1.46286,1.46286 0,0.80457 0.52274,1.46286 1.16163,1.46286 0.6389,0 0.30976,0.68585 -0.73142,1.52412 -1.40209,1.12884 -1.5635,1.66025 -0.62233,2.04898 0.95436,0.39418 0.83295,0.85993 -0.48762,1.87068 -1.5327,1.1731 -1.57061,1.47145 -0.2955,2.32465 1.23927,0.82923 1.18606,0.98112 -0.34815,0.99378 -1.13477,0.01 -1.61843,0.51679 -1.29525,1.35895 0.28366,0.73921 0.005,1.85463 -0.61895,2.47871 -0.86275,0.86275 -0.78606,1.35509 0.32003,2.05438 1.21599,0.76878 1.15753,0.92214 -0.35631,0.93463 -1.2063,0.01 -1.62356,0.50339 -1.24965,1.47779 0.30874,0.80457 0.0893,1.46285 -0.48762,1.46285 -0.57694,0 -0.79636,0.65829 -0.48761,1.46286 0.30874,0.80457 0.0893,1.46286 -0.48762,1.46286 -0.57694,0 -0.81689,0.60481 -0.53322,1.34401 0.28365,0.73921 0.0234,1.83636 -0.57833,2.4381 -0.60175,0.60175 -0.67717,1.1008 -0.1676,1.10901 0.50956,0.008 0.26819,0.44707 -0.53639,0.97524 -1.30031,0.8536 -1.30031,1.067 0,1.92061 1.25236,0.82212 1.21727,0.96245 -0.24381,0.97524 -1.96503,0.0172 -2.29411,1.56583 -0.48761,2.29476 0.70722,0.28538 0.47833,0.52422 -0.54518,0.56889 -0.97032,0.0423 -1.51616,0.47837 -1.21297,0.96894 0.30319,0.49056 -5e-5,1.11544 -0.67387,1.38861 -0.92688,0.37576 -0.869,0.74852 0.23773,1.53122 1.25488,0.88747 1.21204,1.03667 -0.30137,1.04948 -0.97032,0.008 -1.51615,0.41631 -1.21297,0.90688 0.30319,0.49056 -5e-5,1.11545 -0.67387,1.38861 -0.92688,0.37576 -0.869,0.74852 0.23773,1.53122 1.25488,0.88747 1.21204,1.03667 -0.30136,1.04948 -0.97033,0.008 -1.493,0.45379 -1.16149,0.99017 0.3315,0.53638 0.18915,0.97524 -0.31632,0.97524 -1.38225,0 -2.08282,3.73851 -0.7992,4.26482 0.61353,0.25157 0.2378,0.49875 -0.83496,0.54932 -1.62319,0.0765 -1.70501,0.25055 -0.48762,1.03729 1.2134,0.78416 1.13025,0.95047 -0.48762,0.97524 -1.61787,0.0248 -1.70102,0.19108 -0.48762,0.97524 1.2134,0.78416 1.13026,0.95046 -0.48762,0.97523 -1.61787,0.0248 -1.70102,0.19108 -0.48761,0.97524 1.2134,0.78416 1.13025,0.95047 -0.48762,0.97524 -1.61788,0.0248 -1.70102,0.19108 -0.48762,0.97524 1.2134,0.78416 1.13025,0.95047 -0.48762,0.97524 -1.61787,0.0248 -1.70102,0.19107 -0.48762,0.97523 1.2134,0.78416 1.13025,0.95047 -0.48762,0.97524 -1.61787,0.0248 -1.70102,0.19108 -0.48762,0.97524 1.2134,0.78416 1.13025,0.95047 -0.48762,0.97524 -1.61787,0.0248 -1.70102,0.19108 -0.48762,0.97524 1.2134,0.78416 1.13026,0.95046 -0.48762,0.97523 -1.49553,0.0229 -1.63608,0.22899 -0.60257,0.88356 1.05775,0.66992 0.89725,0.99672 -0.74559,1.51813 -1.15142,0.36546 -1.84179,1.07171 -1.53415,1.56948 0.30763,0.49777 -0.0151,0.91174 -0.71727,0.91996 -0.92764,0.0108 -0.87673,0.27336 0.18625,0.9603 1.21739,0.78675 1.13557,0.9608 -0.48762,1.0373 -1.29411,0.0609 -1.49056,0.27402 -0.58379,0.63303 0.99995,0.39591 0.73826,0.88937 -0.97523,1.83893 -1.50033,0.83143 -1.81624,1.33487 -0.87907,1.40092 1.06923,0.0754 0.98421,0.29172 -0.31598,0.80407 -0.97836,0.38553 -1.70887,1.07362 -1.62337,1.52908 0.0855,0.45547 -0.43059,1.19961 -1.14688,1.65365 -1.04718,0.6638 -1.01573,0.83524 0.16051,0.87503 0.88533,0.0299 0.50032,0.59973 -0.97524,1.44323 -1.47485,0.8431 -1.86015,1.41307 -0.97523,1.44268 0.87609,0.0294 0.52881,0.53213 -0.86582,1.2536 -1.28077,0.66257 -2.23898,1.57378 -2.12935,2.02492 0.10963,0.45112 -0.59789,1.43963 -1.57227,2.19667 -1.68217,1.30695 -1.67314,1.34386 0.17886,0.73104 2.35908,-0.78059 1.33891,0.51396 -1.57997,2.00493 -1.15617,0.59058 -2.12853,1.51264 -2.1608,2.04902 -0.0323,0.53638 -0.95922,1.74409 -2.05989,2.68382 -1.84531,1.57545 -1.85579,1.65753 -0.1346,1.05332 1.2902,-0.45291 1.64889,-0.30291 1.1615,0.4857 -0.38784,0.62753 -1.26897,1.14097 -1.95806,1.14097 -0.68909,0 -4.13466,3.40114 -7.65681,7.55809 -8.82712,10.41807 -38.10049,38.61436 -39.07631,37.63855 -0.16988,-0.16989 -1.92405,1.17057 -3.89816,2.97877 -1.9741,1.8082 -3.60388,3.00903 -3.62172,2.6685 -0.0178,-0.34053 -0.84108,0.34961 -1.82941,1.53367 -0.98833,1.18404 -2.06054,1.88923 -2.38269,1.56708 -0.32216,-0.32215 -0.86148,0.13285 -1.1985,1.01111 -0.33702,0.87826 -1.00873,1.35212 -1.4927,1.053 -0.48397,-0.29911 -1.14225,0.13975 -1.46286,0.97524 -0.3206,0.83549 -0.97889,1.27435 -1.46286,0.97524 -0.48396,-0.29911 -1.14225,0.13975 -1.46286,0.97523 -0.32059,0.8355 -0.95978,1.28616 -1.42039,1.00149 -0.46062,-0.28468 -1.73119,0.37613 -2.82353,1.46846 -1.09232,1.09233 -2.29805,1.95357 -2.6794,1.91388 -0.38134,-0.0397 -1.00877,0.7283 -1.39431,1.70666 -0.5074,1.28765 -0.72401,1.3749 -0.78444,0.31598 -0.0742,-1.30031 -0.18851,-1.30031 -1.02884,0 -0.51996,0.80457 -0.9521,1.11828 -0.96031,0.69712 -0.0306,-1.57099 -3.91648,1.38909 -3.93082,2.99433 -0.0128,1.43627 -0.14839,1.46584 -0.9603,0.2095 -0.78416,-1.2134 -0.95047,-1.13025 -0.97524,0.48762 -0.0248,1.61787 -0.19108,1.70102 -0.97524,0.48762 -0.78416,-1.2134 -0.95047,-1.13025 -0.97524,0.48762 -0.0248,1.61787 -0.19108,1.70102 -0.97524,0.48762 -0.68694,-1.06298 -0.94945,-1.11389 -0.9603,-0.18625 -0.008,0.70213 -0.45379,1.00537 -0.99017,0.67387 -0.53638,-0.3315 -0.98196,0.19116 -0.99017,1.16149 -0.0127,1.49583 -0.15876,1.54167 -0.96031,0.30137 -0.78416,-1.21341 -0.95047,-1.13026 -0.97524,0.48761 -0.0248,1.61788 -0.19107,1.70102 -0.97523,0.48762 -0.78416,-1.2134 -0.95047,-1.13025 -0.97524,0.48762 -0.0248,1.61787 -0.19108,1.70102 -0.97524,0.48762 -0.78416,-1.2134 -0.95047,-1.13025 -0.97524,0.48762 -0.0248,1.61787 -0.19108,1.70102 -0.97524,0.48762 -0.78416,-1.2134 -0.95046,-1.13025 -0.97523,0.48762 -0.0212,1.38385 -0.26067,1.58674 -0.82433,0.6984 -1.04113,-1.64081 -4.04762,-0.4578 -4.0668,1.60023 -0.013,1.39084 -0.13971,1.40924 -0.9603,0.13946 -0.78416,-1.2134 -0.95047,-1.13025 -0.97524,0.48762 -0.0212,1.38386 -0.26066,1.58674 -0.82433,0.6984 -1.03425,-1.62997 -4.02942,-0.46913 -4.12886,1.60023 -0.0486,1.01184 -0.25826,1.15308 -0.56888,0.38328 -0.72893,-1.80649 -2.27757,-1.47742 -2.29477,0.48762 -0.0128,1.45851 -0.15239,1.49396 -0.9603,0.24381 -0.78675,-1.21739 -0.9608,-1.13557 -1.0373,0.48762 -0.0506,1.07276 -0.31328,1.4019 -0.58382,0.73142 -0.72615,-1.79956 -2.26804,-1.48055 -2.35683,0.48762 -0.046,1.01956 -0.27503,1.21587 -0.56889,0.48762 -0.72614,-1.79957 -2.26803,-1.48056 -2.35683,0.48762 -0.046,1.01955 -0.27502,1.21587 -0.56888,0.48762 -0.80218,-1.98801 -2.27106,-1.38938 -2.39296,0.97524 -0.0851,1.65124 -0.22351,1.77192 -0.55914,0.48762 -0.24529,-0.93867 -0.85267,-1.70667 -1.34972,-1.70667 -0.49706,0 -0.91045,0.768 -0.91866,1.70667 -0.0128,1.46414 -0.15403,1.49879 -0.99378,0.24381 -0.84723,-1.26618 -1.17301,-1.20834 -2.42315,0.4302 -0.79438,1.04119 -1.44433,1.37033 -1.44433,0.73143 0,-0.6389 -0.43886,-1.16163 -0.97524,-1.16163 -0.53638,0 -0.98196,0.768 -0.99017,1.70666 -0.0128,1.46415 -0.15403,1.4988 -0.99377,0.24381 -0.85321,-1.27511 -1.15156,-1.23719 -2.32466,0.2955 -1.01075,1.32057 -1.4765,1.44198 -1.87068,0.48762 -0.39555,-0.95768 -0.87607,-0.83755 -1.95048,0.48762 -1.07441,1.32517 -1.55492,1.4453 -1.95047,0.48762 -0.39555,-0.95769 -0.87607,-0.83756 -1.95048,0.48762 -0.98794,1.21851 -1.54867,1.3892 -1.82642,0.55597 -0.23584,-0.70753 -1.10456,-0.93232 -2.11078,-0.54619 -0.9405,0.36089 -1.43685,1.09814 -1.10302,1.63831 0.33385,0.54016 0.14224,0.98212 -0.4258,0.98212 -0.56803,0 -1.03279,-0.43885 -1.03279,-0.97523 0,-0.53639 -0.65829,-0.97524 -1.46286,-0.97524 -0.80457,0 -1.46286,0.65828 -1.46286,1.46285 0,0.80458 -0.43885,1.46286 -0.97523,1.46286 -0.53639,0 -0.97524,-0.43886 -0.97524,-0.97524 0,-0.53638 -0.87772,-0.97523 -1.95048,-0.97523 -1.08846,0 -1.95047,0.65016 -1.95047,1.47111 0,1.19222 -0.34531,1.25549 -1.82129,0.33371 -2.48004,-1.54881 -5.15524,-0.42873 -4.33596,1.81541 0.60717,1.66312 0.54662,1.66481 -1.31228,0.037 -2.08901,-1.82944 -5.71687,-2.27593 -6.61994,-0.81473 -0.3032,0.49057 4e-5,1.11421 0.67387,1.38587 0.76156,0.30703 0.60113,0.52305 -0.42399,0.57091 -0.90701,0.0423 -1.92034,-0.36186 -2.25184,-0.89824 -0.33151,-0.53638 -2.14241,-0.97524 -4.02423,-0.97524 -2.92839,0 -3.33597,0.26946 -2.82809,1.86965 0.48074,1.51469 0.21549,1.77082 -1.39714,1.34911 -1.0948,-0.28634 -1.99054,-0.90826 -1.99054,-1.38208 0,-0.47382 -2.74286,-0.81774 -6.09524,-0.76428 -4.17572,0.0666 -5.32742,0.31541 -3.65714,0.79009 2.35368,0.66889 2.32413,0.71617 -0.85334,1.36564 -5.08535,1.03945 -10.07627,0.8086 -17.84358,-0.8253 -6.27358,-1.31968 -7.24693,-1.32662 -8.17441,-0.0582 -0.91494,1.25126 -1.42755,1.19284 -3.91362,-0.44599 z m 25.68241,0.3302 c -1.46544,-0.22252 -4.09858,-0.227 -5.85143,-0.01 -1.75284,0.21705 -0.55384,0.39912 2.66444,0.40459 3.21829,0.006 4.65243,-0.17211 3.18699,-0.39464 z M 367.81019,311.87052 c 0.88455,-0.20209 2.24151,-0.89296 3.01545,-1.53528 0.77393,-0.64232 1.69591,-0.95222 2.04885,-0.68868 0.35293,0.26353 0.45408,0.2184 0.22477,-0.10032 -0.22932,-0.31871 1.1131,-1.92288 2.98316,-3.56481 5.28197,-4.63762 8.2149,-11.16128 8.22118,-18.28619 0.007,-7.55825 -2.42325,-11.8129 -13.53075,-23.69165 -22.94907,-24.54251 -100.25438,-100.32113 -104.50597,-102.44211 -3.92578,-1.95843 -17.11837,-1.90867 -20.98771,0.0792 -1.61288,0.82859 -24.21707,22.63943 -50.23155,48.46852 -26.01448,25.82908 -49.82195,49.31806 -52.90549,52.19773 -3.08354,2.87969 -5.40195,5.44027 -5.15201,5.69021 0.24993,0.24994 -1.2866,2.43234 -3.41452,4.84978 -2.12791,2.41744 -3.86893,4.79831 -3.86893,5.29084 0,0.49251 -0.32915,0.69207 -0.73143,0.44344 -1.69223,-1.04586 -1.55572,14.22237 0.16395,18.33813 0.80188,1.91919 1.36733,3.61648 1.25654,3.77174 -0.3026,0.42404 9.74238,9.20755 11.77236,10.29397 2.34607,1.25557 15.65945,1.10446 18.74303,-0.21273 3.25114,-1.38878 8.58908,-6.3239 38.36678,-35.47143 13.85884,-13.56558 25.36367,-24.66468 25.56629,-24.66468 0.76793,0 29.37961,-28.85997 30.4557,-30.72 0.62156,-1.07437 1.1965,-1.40291 1.27998,-0.73143 0.0834,0.67048 0.20642,1.65791 0.27346,2.19429 0.0671,0.53638 0.56077,1.00651 1.09715,1.04473 1.58869,0.11321 4.38729,3.04455 3.80546,3.98596 -0.29541,0.47798 -0.17372,0.74847 0.27044,0.60109 0.44414,-0.14738 8.45378,7.49969 17.79918,16.9935 9.34541,9.49381 17.35374,17.03769 17.7963,16.76417 0.44256,-0.27351 1.20451,0.51654 1.69322,1.75568 0.98041,2.4858 13.73635,15.43355 13.73635,13.94289 0,-0.5125 5.15657,4.12559 11.45905,10.30686 10.3746,10.17509 22.23378,21.18818 25.75081,23.91364 0.74484,0.5772 1.95443,0.84941 2.68796,0.6049 0.73352,-0.2445 1.07082,-0.0192 0.74955,0.50059 -0.55086,0.8913 10.28885,0.95081 14.11139,0.0774 z M 256.25518,158.29374 c -0.93241,-0.24409 -2.68784,-0.25294 -3.90095,-0.0197 -1.21311,0.23327 -0.45023,0.43299 1.69529,0.44381 2.14553,0.0108 3.13808,-0.18003 2.20566,-0.42413 z"
     id="path881" />
</svg>
